<svg width="8" height="12" viewBox="0 0 8 12" fill="none" xmlns="http://www.w3.org/2000/svg">
<mask id="path-1-inside-1_3:27" fill="white">
<path fill-rule="evenodd" clip-rule="evenodd" d="M7.42944 6.06003C7.79166 5.45832 8 4.75349 8 4C8 1.79086 6.20914 0 4 0C1.79086 0 0 1.79086 0 4C0 4.75349 0.208341 5.45832 0.570558 6.06003L4 12L7.42944 6.06003Z"/>
</mask>
<path d="M7.42944 6.06003L6.74405 5.64744L6.74028 5.6537L6.73662 5.66003L7.42944 6.06003ZM0.570558 6.06003L1.26338 5.66003L1.25972 5.6537L1.25595 5.64744L0.570558 6.06003ZM4 12L3.30718 12.4L4 13.6L4.69282 12.4L4 12ZM7.2 4C7.2 4.60408 7.03338 5.1668 6.74405 5.64744L8.11484 6.47263C8.54994 5.74985 8.8 4.90291 8.8 4H7.2ZM4 0.8C5.76731 0.8 7.2 2.23269 7.2 4H8.8C8.8 1.34903 6.65097 -0.8 4 -0.8V0.8ZM0.8 4C0.8 2.23269 2.23269 0.8 4 0.8V-0.8C1.34903 -0.8 -0.8 1.34903 -0.8 4H0.8ZM1.25595 5.64744C0.966616 5.1668 0.8 4.60408 0.8 4H-0.8C-0.8 4.90291 -0.549935 5.74985 -0.114836 6.47263L1.25595 5.64744ZM4.69282 11.6L1.26338 5.66003L-0.122262 6.46003L3.30718 12.4L4.69282 11.6ZM6.73662 5.66003L3.30718 11.6L4.69282 12.4L8.12226 6.46003L6.73662 5.66003Z" fill="#858585" mask="url(#path-1-inside-1_3:27)"/>
<circle cx="4.00001" cy="4.00002" r="1.37778" stroke="#858585" stroke-width="0.8"/>
</svg>
