<svg width="12" height="12" viewBox="0 0 12 12" fill="none" xmlns="http://www.w3.org/2000/svg">
<path d="M9.49551 1H4.50502C3.94952 1 3.50002 1.4495 3.50002 2.005V4.8235L1.14901 7.1445C1.07857 7.21417 1.03042 7.30319 1.01066 7.40028C0.990896 7.49736 1.00042 7.59813 1.03803 7.68979C1.07564 7.78145 1.13963 7.85987 1.22188 7.9151C1.30413 7.97033 1.40094 7.99988 1.50001 8V10.5C1.50001 10.6326 1.55269 10.7598 1.64646 10.8536C1.74023 10.9473 1.86741 11 2.00001 11H10C10.1326 11 10.2598 10.9473 10.3536 10.8536C10.4473 10.7598 10.5 10.6326 10.5 10.5V2.0045C10.5 1.4495 10.051 1 9.49551 1ZM5.46101 7.5555V10H2.50001V7.216L3.99352 5.7415L5.46101 7.243V7.5555V7.5555ZM6.50001 4.5H5.50001V3.5H6.50001V4.5ZM8.50001 8.5H7.50001V7.5H8.50001V8.5ZM8.50001 6.5H7.50001V5.5H8.50001V6.5ZM8.50001 4.5H7.50001V3.5H8.50001V4.5Z" fill="#858585"/>
<path d="M3.5 7.5H4.5V8.5H3.5V7.5Z" fill="#858585"/>
</svg>
